<?xml version="1.0" encoding="UTF-8" standalone="no"?>
<!-- Created with Inkscape (http://www.inkscape.org/) -->

<svg
   width="3840"
   height="2160"
   viewBox="0 0 1016 571.5"
   version="1.1"
   id="svg5"
   xml:space="preserve"
   inkscape:version="1.2.2 (b0a8486541, 2022-12-01)"
   sodipodi:docname="gray0_ctp_on_line_background.svg"
   xmlns:inkscape="http://www.inkscape.org/namespaces/inkscape"
   xmlns:sodipodi="http://sodipodi.sourceforge.net/DTD/sodipodi-0.dtd"
   xmlns="http://www.w3.org/2000/svg"
   xmlns:svg="http://www.w3.org/2000/svg"><sodipodi:namedview
     id="namedview7"
     pagecolor="#ffffff"
     bordercolor="#000000"
     borderopacity="0.25"
     inkscape:showpageshadow="2"
     inkscape:pageopacity="0.0"
     inkscape:pagecheckerboard="0"
     inkscape:deskcolor="#d1d1d1"
     inkscape:document-units="px"
     showgrid="false"
     inkscape:zoom="0.2102413"
     inkscape:cx="1189.1098"
     inkscape:cy="563.63807"
     inkscape:window-width="1536"
     inkscape:window-height="936"
     inkscape:window-x="0"
     inkscape:window-y="0"
     inkscape:window-maximized="1"
     inkscape:current-layer="layer1" /><defs
     id="defs2" /><g
     inkscape:label="Layer 1"
     inkscape:groupmode="layer"
     id="layer1"><rect
       style="fill:#ffffff;stroke-width:0.264583"
       id="rect166"
       width="1016"
       height="571.5"
       x="0"
       y="0" /><g
       style="stroke-linecap:round;stroke-linejoin:round;stroke-miterlimit:1.5"
       id="g126"
       transform="matrix(1.6957313,0,0,1.6957313,-0.66613765,218.76824)"><path
         transform="translate(92.3579,4.11772)"
         d="m 105.809,48.397 c 0,-3.891 -3.336,-4.466 -3.336,-14.894"
         style="fill:none;stroke:#6e6c7e;stroke-width:1.5px"
         id="path90" /><path
         transform="translate(92.3579,4.11772)"
         d="m 109.397,38.324 v 9.997"
         style="fill:none;stroke:#6e6c7e;stroke-width:1.5px"
         id="path92" /><path
         transform="translate(92.3579,4.11772)"
         d="m 112.883,48.152 c 0,-3.435 2.17,-7.598 2.17,-13.068 0,-5.471 -0.66,-10.289 -0.837,-13.274"
         style="fill:none;stroke:#6e6c7e;stroke-width:1.5px"
         id="path94" /><path
         transform="translate(92.3579,4.11772)"
         d="m 112.951,22.241 c 0,0 3.384,-0.265 4.553,-5.546"
         style="fill:none;stroke:#6e6c7e;stroke-width:1.5px"
         id="path96" /><path
         transform="translate(92.3579,4.11772)"
         d="m 107.788,11.843 c 0,0 -1.419,-4.409 -2.619,-4.409 -1.2,0 -3.299,5.753 -3.299,14.428 0,2.241 -11.689,8.123 -9.211,21.709 0.398,2.18 1.394,6.337 1.394,6.353 0,0.016 2.518,9.529 -2.869,9.529 -1.121,0 -1.658,-0.62 -2.779,-0.62 -1.12,0 -2.024,0.765 -2.024,1.758 0,0.993 1.11,3.434 5.065,3.434 7.147,0 7.419,-5.987 7.419,-9.867 0,-3.88 -0.036,-2.679 -0.036,-3.314 0,-2.127 1.772,-2.56 2.43,-2.801"
         style="fill:none;stroke:#6e6c7e;stroke-width:1.5px"
         id="path98" /><ellipse
         transform="matrix(1.00474,-0.404483,0.370766,0.920982,85.4108,49.8267)"
         cx="111.892"
         cy="15.766"
         rx="1.0319999"
         ry="1.449"
         style="fill:#2f2c3e"
         id="ellipse100" /><path
         transform="translate(92.3579,4.11772)"
         d="m 110.074,10.347 c 3.543,0 4.374,4.288 7.066,4.288"
         style="fill:none;stroke:#6e6c7e;stroke-width:1.5px"
         id="path102" /><path
         transform="translate(92.3579,4.11772)"
         d="m 112.568,9.074 c 0,0 -1.015,-2.334 -1.891,-2.334 -0.876,0 -2.14,2.429 -2.14,2.429"
         style="fill:none;stroke:#6e6c7e;stroke-width:1.5px"
         id="path104" /><path
         transform="matrix(3.96613,0,0,5.89452,-177.012,-336.835)"
         d="m 93.717,66.428 h 101.93"
         style="fill:none;stroke:#6e6c7e;stroke-width:0.3px"
         id="path106" /><path
         transform="matrix(1.78906,0,0,2.78204,-166.7,-130.078)"
         d="m 93.717,66.428 h 101.93"
         style="fill:none;stroke:#6e6c7e;stroke-width:0.64px"
         id="path108" /></g></g></svg>
